<?xml version="1.0" encoding="UTF-8" standalone="no"?>
<!-- Created with Inkscape (http://www.inkscape.org/) -->

<svg
   width="634.44171"
   height="500.96103"
   viewBox="0 0 634.44171 500.96102"
   version="1.1"
   id="svg1"
   inkscape:version="1.4.2 (ebf0e940d0, 2025-05-08)"
   sodipodi:docname="slide 2.svg"
   xml:space="preserve"
   inkscape:export-filename="slide2-1.svg"
   inkscape:export-xdpi="96"
   inkscape:export-ydpi="96"
   xmlns:inkscape="http://www.inkscape.org/namespaces/inkscape"
   xmlns:sodipodi="http://sodipodi.sourceforge.net/DTD/sodipodi-0.dtd"
   xmlns="http://www.w3.org/2000/svg"
   xmlns:svg="http://www.w3.org/2000/svg"><sodipodi:namedview
     id="namedview1"
     pagecolor="#ffffff"
     bordercolor="#000000"
     borderopacity="0.25"
     inkscape:showpageshadow="2"
     inkscape:pageopacity="0.0"
     inkscape:pagecheckerboard="0"
     inkscape:deskcolor="#d1d1d1"
     inkscape:document-units="px"
     inkscape:zoom="0.63"
     inkscape:cx="717.46032"
     inkscape:cy="337.30159"
     inkscape:window-width="1876"
     inkscape:window-height="1006"
     inkscape:window-x="0"
     inkscape:window-y="0"
     inkscape:window-maximized="1"
     inkscape:current-layer="g14"
     showgrid="true"
     showguides="true"><inkscape:grid
       id="grid1"
       units="px"
       originx="-1030.3762"
       originy="-285.14899"
       spacingx="1"
       spacingy="1"
       empcolor="#0099e5"
       empopacity="0.30196078"
       color="#0099e5"
       opacity="0.14901961"
       empspacing="5"
       enabled="true"
       visible="true" /><inkscape:page
       x="0"
       y="0"
       width="634.44171"
       height="500.96103"
       id="page1"
       margin="0"
       bleed="0" /></sodipodi:namedview><defs
     id="defs1"><marker
       style="overflow:visible"
       id="ArrowWideHeavy-4"
       refX="0"
       refY="0"
       orient="auto-start-reverse"
       inkscape:stockid="Wide, heavy arrow"
       markerWidth="0.80000001"
       markerHeight="0.80000001"
       viewBox="0 0 1 1"
       inkscape:isstock="true"
       inkscape:collect="always"
       preserveAspectRatio="xMidYMid"><path
         style="fill:context-stroke;fill-rule:evenodd;stroke:none"
         d="m 1,0 -3,3 h -2 l 3,-3 -3,-3 h 2 z"
         id="path3-8" /></marker><marker
       style="overflow:visible"
       id="ArrowWideHeavy-7-1"
       refX="0"
       refY="0"
       orient="auto-start-reverse"
       inkscape:stockid="Wide, heavy arrow"
       markerWidth="0.80000001"
       markerHeight="0.80000001"
       viewBox="0 0 1 1"
       inkscape:isstock="true"
       inkscape:collect="always"
       preserveAspectRatio="xMidYMid"><path
         style="fill:context-stroke;fill-rule:evenodd;stroke:none"
         d="m 1,0 -3,3 h -2 l 3,-3 -3,-3 h 2 z"
         id="path3-5-0" /></marker><marker
       style="overflow:visible"
       id="ArrowWideHeavy-7-1-9"
       refX="0"
       refY="0"
       orient="auto-start-reverse"
       inkscape:stockid="Wide, heavy arrow"
       markerWidth="0.80000001"
       markerHeight="0.80000001"
       viewBox="0 0 1 1"
       inkscape:isstock="true"
       inkscape:collect="always"
       preserveAspectRatio="xMidYMid"><path
         style="fill:context-stroke;fill-rule:evenodd;stroke:none"
         d="m 1,0 -3,3 h -2 l 3,-3 -3,-3 h 2 z"
         id="path3-5-0-6" /></marker></defs><g
     inkscape:groupmode="layer"
     id="layer2"
     inkscape:label="Base Layer"
     transform="translate(-1030.3762,-285.14918)"
     style="display:inline"><path
       style="display:inline;opacity:0.9;fill:none;fill-rule:evenodd;stroke:#000000;stroke-width:4;stroke-linecap:round;stroke-linejoin:bevel;stroke-dasharray:none;stroke-dashoffset:0;marker-start:url(#ArrowWideHeavy-4);paint-order:markers fill stroke"
       d="M 1226.9114,332.14187 V 734.66199"
       id="path1-4" /><path
       style="display:inline;opacity:0.9;fill:none;fill-rule:evenodd;stroke:#000000;stroke-width:4;stroke-linecap:round;stroke-linejoin:bevel;stroke-dasharray:none;stroke-dashoffset:0;marker-start:url(#ArrowWideHeavy-7-1);paint-order:markers fill stroke"
       d="m 1520.9163,543.15134 -374.8905,-2e-5"
       id="path1-6-4" /><path
       style="display:inline;opacity:0.9;fill:none;fill-rule:evenodd;stroke:#000000;stroke-width:4;stroke-linecap:round;stroke-linejoin:bevel;stroke-dasharray:none;stroke-dashoffset:0;marker-start:url(#ArrowWideHeavy-7-1-9);paint-order:markers fill stroke"
       d="M 1109.2964,657.91435 1306.9245,468.06502"
       id="path1-6-4-7" /><path
       style="opacity:0.7;fill:#ff6600;fill-opacity:1;fill-rule:nonzero;stroke:#ff6600"
       id="path5"
       d="m 1300.5476,441.65705 c -12.0878,-20.74556 -0.6206,-5.57604 -44.7455,-19.22004 -6.3236,-1.95533 -12.1775,-5.25587 -18.5004,-7.21336 -10.0926,-3.12454 -39.5725,-9.21384 -48.591,-9.11261 -8.8524,0.0994 -17.4309,3.1079 -26.1464,4.66185 -8.3891,3.99294 -17.6019,6.58581 -25.1674,11.97881 -14.2794,10.17892 -23.6358,25.56334 -28.7908,41.99666 -2.6471,8.43869 -3.7836,17.3281 -4.5547,26.13856 -0.9155,10.45931 -1.6216,21.05599 -0.4897,31.4941 1.3832,12.755 5.3253,25.10087 7.988,37.6513 12.9312,21.8995 30.9702,64.40731 60.3853,74.2913 24.1968,8.13053 50.7603,5.5507 76.0229,9.21022 12.1128,1.75466 23.8624,5.79397 36.0397,7.02312 29.4395,2.97156 30.9266,0.0693 57.2754,-7.46377 6.9233,-3.07243 14.6244,-4.78962 20.7699,-9.21728 10.6086,-7.64319 16.4603,-19.11781 18.1922,-31.73471 0.6838,-4.98181 0.781,-10.29359 -0.81,-15.06381 -1.5696,-4.70653 -3.7746,-10.366 -8.3281,-12.33609 -16.2264,-7.02048 -34.202,-8.97581 -51.303,-13.46371 -39.4344,-58.23104 -20.6193,-18.18778 -31.2951,-66.60633 -0.056,-0.25174 -1.9537,-10.34055 -5.9779,-6.65645 -1.2626,1.15588 -3.7481,8.31882 -4.0974,9.23279 -0.4092,1.86409 -0.8184,3.72818 -1.2276,5.59227 -0.1256,1.2589 -0.1465,2.5327 -0.3768,3.77671 -0.098,0.53104 -1.0723,1.76848 -0.6011,1.5046 0.9478,-0.53073 1.4049,-2.90114 1.3418,-3.78788 -0.079,-1.11712 -0.4479,-2.19462 -0.6719,-3.29194 -0.6207,-0.24372 -1.1976,-0.7866 -1.8621,-0.73118 -0.9122,0.0761 -1.7148,0.65698 -2.5177,1.09649 -5.4953,3.00798 -8.5419,6.10678 -11.1335,11.88653 -0.6341,1.41414 -0.9693,2.9441 -1.454,4.41615 -0.4431,0.66525 -8.7026,13.0523 -9.0937,13.69954 -1.5636,2.5873 -3.7842,6.6365 -1.1169,9.74303 4.1135,4.79082 9.9544,7.78489 14.677,11.97655 3.531,3.13413 6.7035,6.65036 10.0552,9.97554 1.0817,2.09521 2.1634,4.19041 3.2451,6.28562 -0.3789,1.31155 18.1693,6.67091 18.5482,5.35936 v 0 c 1.6135,0.56682 3.2271,1.13363 4.8406,1.70045 4.2305,1.90135 8.4562,3.81368 12.6917,5.70405 25.1827,11.2394 10.8515,3.86407 21.2786,10.06382 0.2854,0.16972 0.9495,0.12624 0.8875,0.4525 -0.4972,2.61758 -3.0058,4.63393 -2.5822,7.5646 1.9218,0.83434 7.2797,3.48546 9.3559,3.22388 1.3257,-0.16703 2.5377,-0.8532 3.7526,-1.40947 6.5455,-2.99704 5.4456,-2.79502 11.5226,-7.74033 9.4198,-11.12838 3.4686,-4.32271 12.728,-14.43381 2.0795,-2.27077 4.1191,-4.57805 6.2125,-6.83605 1.3408,-1.44629 2.5538,-3.03823 4.0893,-4.27596 2.5098,-2.02313 5.3373,-2.87415 8.2639,-4.00039 3.4786,-2.22454 6.191,-3.54427 8.6404,-7.25303 4.8175,-7.29427 6.3271,-15.80294 6.5446,-24.48441 1.1731,-46.82913 -0.013,-31.92967 -29.614,-79.18106 -19.5016,-5.13823 -39.2694,-9.3552 -58.5047,-15.41467 -7.8492,-2.47266 -14.8997,-7.01113 -22.5232,-10.11066 -14.6463,-5.9549 -32.0866,-12.12207 -47.8372,-14.28071 -7.877,-1.07956 -15.9653,-1.91815 -23.8383,-0.80967 -7.2809,1.02511 -13.9214,4.73739 -20.8821,7.10609 -5.7318,3.07012 -12.2904,4.94186 -17.1954,9.21036 -2.6257,2.28499 -21.1355,26.22743 -11.8055,32.81199 13.4049,9.4603 33.6084,4.92111 47.1192,14.22958 19.5921,13.49837 4.9345,55.57617 27.5791,65.83255 1.038,4.29534 6.7415,32.56757 11.6067,39.42703 5.1177,7.21559 20.7404,12.3396 28.5875,6.56895 2.2952,-1.68789 2.9922,-4.84923 4.4883,-7.27385 1.0768,-3.45314 2.8724,-6.76005 3.2303,-10.35942 0.4895,-4.92172 -0.5722,-9.87662 -0.7261,-14.82022 -0.1165,-3.7399 0.3802,-7.51211 -0.085,-11.22481 -0.4406,-3.51794 0.3256,-8.32623 -2.6125,-10.31044 -32.0443,-21.64002 -29.8136,1.33287 -29.652,-19.25304 5.1983,2.7401 43.9492,-70.77569 38.7508,-73.51579 z" /><path
       style="fill:#000000;fill-opacity:1;fill-rule:nonzero;stroke:none"
       id="path8"
       d="m 1363.5902,406.21813 c -6.1488,2.8579 -12.4713,6.54158 -16.3081,12.34502 -0.6542,0.98958 -1.0491,2.12804 -1.5737,3.19206 -0.1221,1.42127 -0.6076,3.16162 0.276,4.51878 0.2358,0.36222 0.7255,0.47001 1.0883,0.70501 0.013,0.0115 0.1764,-0.17546 0.1632,-0.187 v 0 c -0.3092,-0.18157 -0.803,-0.20849 -0.9276,-0.54472 -0.4503,-1.21512 1.1868,-2.6797 1.6643,-3.29395 5.1021,-5.86906 10.715,-10.19463 17.4292,-14.1021 0.1862,-0.1281 -1.6255,-2.7612 -1.8116,-2.6331 z" /><path
       style="fill:#000000;fill-opacity:1;fill-rule:nonzero;stroke:none"
       id="path9"
       d="m 1354.2408,408.51087 c 4.8214,0.67983 9.6898,-0.74655 14.5005,-0.33351 -0.3419,-0.33708 -0.5929,-0.80365 -1.0259,-1.01122 -0.594,-0.28477 -1.7174,1.01235 -2.2286,1.49638 -2.7842,2.63599 -3.6609,4.02999 -5.3973,7.43653 -0.6456,2.55801 -0.9128,4.26954 -0.4268,6.81288 0,0.0262 0.3682,0.0496 0.3698,0.0234 v 0 c 0.8165,-1.99544 2.1226,-3.61702 3.4991,-5.27665 1.3225,-2.17143 1.5631,-2.73553 3.1752,-4.70828 0.7752,-0.9487 4.2895,-4.15975 4.3987,-5.40587 0.074,-0.84167 -0.5616,-1.59376 -0.8423,-2.39064 -2.0651,-0.72301 -1.0722,-0.52211 -4.1776,-0.50611 -4.2302,0.0218 -8.4378,0.59188 -12.6671,0.66012 -0.2265,0.0581 0.5958,3.26108 0.8223,3.20293 z" /><text
       xml:space="preserve"
       style="font-size:26.6667px;font-family:'DejaVu Sans';-inkscape-font-specification:'DejaVu Sans';text-align:center;writing-mode:lr-tb;direction:ltr;text-anchor:middle;opacity:1;fill:#000000;fill-rule:evenodd;stroke:none;stroke-width:4;stroke-linecap:round;stroke-linejoin:round;stroke-dasharray:none;paint-order:fill markers stroke"
       x="1474.0847"
       y="374.18213"
       id="text10"><tspan
         sodipodi:role="line"
         id="tspan10"
         x="1474.0847"
         y="374.18213">coherent temperature</tspan><tspan
         sodipodi:role="line"
         x="1474.0847"
         y="407.5155"
         id="tspan11">paradise</tspan></text></g></svg>
