<?xml version="1.0" encoding="UTF-8" standalone="no"?>
<!-- Created with Inkscape (http://www.inkscape.org/) -->

<svg
   width="634.44171"
   height="500.96103"
   viewBox="0 0 634.44171 500.96102"
   version="1.1"
   id="svg1"
   inkscape:version="1.4.2 (ebf0e940d0, 2025-05-08)"
   sodipodi:docname="slide 2.svg"
   xml:space="preserve"
   inkscape:export-filename="slide2-2.svg"
   inkscape:export-xdpi="96"
   inkscape:export-ydpi="96"
   xmlns:inkscape="http://www.inkscape.org/namespaces/inkscape"
   xmlns:sodipodi="http://sodipodi.sourceforge.net/DTD/sodipodi-0.dtd"
   xmlns="http://www.w3.org/2000/svg"
   xmlns:svg="http://www.w3.org/2000/svg"
   xmlns:ns2="http://www.iki.fi/pav/software/textext/"><sodipodi:namedview
     id="namedview1"
     pagecolor="#ffffff"
     bordercolor="#000000"
     borderopacity="0.25"
     inkscape:showpageshadow="2"
     inkscape:pageopacity="0.0"
     inkscape:pagecheckerboard="0"
     inkscape:deskcolor="#d1d1d1"
     inkscape:document-units="px"
     inkscape:zoom="0.63"
     inkscape:cx="-109.52381"
     inkscape:cy="380.15873"
     inkscape:window-width="931"
     inkscape:window-height="1006"
     inkscape:window-x="0"
     inkscape:window-y="0"
     inkscape:window-maximized="1"
     inkscape:current-layer="g14"
     showgrid="true"
     showguides="true"><inkscape:grid
       id="grid1"
       units="px"
       originx="-1030.3762"
       originy="-285.14899"
       spacingx="1"
       spacingy="1"
       empcolor="#0099e5"
       empopacity="0.30196078"
       color="#0099e5"
       opacity="0.14901961"
       empspacing="5"
       enabled="true"
       visible="true" /><inkscape:page
       x="0"
       y="0"
       width="634.44171"
       height="500.96103"
       id="page1"
       margin="0"
       bleed="0" /></sodipodi:namedview><defs
     id="defs1"><marker
   style="overflow:visible"
   id="ArrowWideHeavy"
   refX="0"
   refY="0"
   orient="auto-start-reverse"
   inkscape:stockid="Wide, heavy arrow"
   markerWidth="0.80000001"
   markerHeight="0.80000001"
   viewBox="0 0 1 1"
   inkscape:isstock="true"
   inkscape:collect="always"
   preserveAspectRatio="xMidYMid"><path
     style="fill:context-stroke;fill-rule:evenodd;stroke:none"
     d="m 1,0 -3,3 h -2 l 3,-3 -3,-3 h 2 z"
     id="path3" /></marker><marker
   style="overflow:visible"
   id="ArrowWideHeavy-7"
   refX="0"
   refY="0"
   orient="auto-start-reverse"
   inkscape:stockid="Wide, heavy arrow"
   markerWidth="0.80000001"
   markerHeight="0.80000001"
   viewBox="0 0 1 1"
   inkscape:isstock="true"
   inkscape:collect="always"
   preserveAspectRatio="xMidYMid"><path
     style="fill:context-stroke;fill-rule:evenodd;stroke:none"
     d="m 1,0 -3,3 h -2 l 3,-3 -3,-3 h 2 z"
     id="path3-5" /></marker><defs
   id="id-3afe1ed3-a767-4e6a-8d89-29edaf02a9a1">
    <g
   id="id-3258e017-fbbf-4f16-959b-4e6a28e7d553">
      <g
   id="id-3940269e-eac4-43ab-8bda-e630f9fa3227">
        <path
   d="m 1.578125,-0.78125 c -0.09375,0.390625 -0.109375,0.46875 -0.90625,0.46875 -0.15625,0 -0.265625,0 -0.265625,0.1875 C 0.40625,0 0.484375,0 0.671875,0 h 3.3125 c 2.0625,0 4.03125,-2.109375 4.03125,-4.28125 0,-1.40625 -0.84375,-2.53125 -2.34375,-2.53125 h -3.34375 c -0.1875,0 -0.296875,0 -0.296875,0.1875 0,0.125 0.078125,0.125 0.28125,0.125 0.125,0 0.3125,0.015625 0.421875,0.015625 0.171875,0.03125 0.21875,0.046875 0.21875,0.171875 0,0.03125 0,0.0625 -0.03125,0.1875 z M 3.734375,-6.125 C 3.828125,-6.46875 3.84375,-6.5 4.28125,-6.5 h 1.0625 c 0.96875,0 1.796875,0.53125 1.796875,1.84375 0,0.484375 -0.1875,2.125 -1.046875,3.21875 -0.28125,0.375 -1.0625,1.125 -2.296875,1.125 h -1.125 c -0.140625,0 -0.15625,0 -0.21875,0 -0.09375,-0.015625 -0.125,-0.03125 -0.125,-0.109375 0,-0.03125 0,-0.046875 0.046875,-0.21875 z m 0,0"
   id="id-3be20d78-2dfc-431f-849e-df42de1291f6" />
      </g>
      <g
   id="id-01c4e706-cf3a-4b67-bc9d-d3dd9961d4a7">
        <path
   d="m 6.84375,-3.265625 c 0.15625,0 0.34375,0 0.34375,-0.1875 C 7.1875,-3.65625 7,-3.65625 6.859375,-3.65625 h -5.96875 c -0.140625,0 -0.328125,0 -0.328125,0.203125 0,0.1875 0.1875,0.1875 0.328125,0.1875 z m 0.015625,1.9375 c 0.140625,0 0.328125,0 0.328125,-0.203125 0,-0.1875 -0.1875,-0.1875 -0.34375,-0.1875 H 0.890625 c -0.140625,0 -0.328125,0 -0.328125,0.1875 0,0.203125 0.1875,0.203125 0.328125,0.203125 z m 0,0"
   id="id-98b62fd8-415a-4c27-80b7-5bcf28e4579d" />
      </g>
      <g
   id="id-12defe0f-436b-4695-9742-21c1257e43e3">
        <path
   d="m 2.1875,-4.625 c 0,-0.015625 0.015625,-0.109375 0.015625,-0.109375 0,-0.046875 -0.015625,-0.109375 -0.109375,-0.109375 -0.140625,0 -0.71875,0.0625 -0.890625,0.078125 -0.046875,0 -0.15625,0.015625 -0.15625,0.15625 0,0.09375 0.109375,0.09375 0.1875,0.09375 0.328125,0 0.328125,0.0625 0.328125,0.109375 0,0.046875 -0.015625,0.09375 -0.015625,0.15625 L 0.5625,-0.3125 c -0.046875,0.125 -0.046875,0.140625 -0.046875,0.15625 0,0.109375 0.09375,0.21875 0.25,0.21875 0.1875,0 0.265625,-0.125 0.3125,-0.28125 0.015625,-0.03125 0.3125,-1.265625 0.34375,-1.359375 0.5,0.046875 0.890625,0.21875 0.890625,0.578125 0,0.03125 0,0.0625 -0.015625,0.140625 -0.03125,0.09375 -0.03125,0.140625 -0.03125,0.21875 0,0.484375 0.40625,0.703125 0.75,0.703125 0.671875,0 0.875,-1.046875 0.875,-1.0625 0,-0.09375 -0.078125,-0.09375 -0.109375,-0.09375 -0.09375,0 -0.109375,0.046875 -0.140625,0.171875 C 3.5625,-0.625 3.375,-0.125 3.03125,-0.125 c -0.1875,0 -0.25,-0.171875 -0.25,-0.359375 0,-0.125 0,-0.140625 0.046875,-0.3125 0.015625,-0.03125 0.03125,-0.140625 0.03125,-0.21875 0,-0.625 -0.828125,-0.71875 -1.125,-0.734375 C 1.9375,-1.875 2.1875,-2.109375 2.3125,-2.21875 2.671875,-2.546875 3.015625,-2.875 3.40625,-2.875 c 0.078125,0 0.171875,0.015625 0.234375,0.09375 C 3.34375,-2.734375 3.28125,-2.5 3.28125,-2.390625 c 0,0.140625 0.109375,0.25 0.265625,0.25 0.203125,0 0.40625,-0.15625 0.40625,-0.4375 0,-0.234375 -0.171875,-0.5 -0.53125,-0.5 -0.40625,0 -0.765625,0.296875 -1.125,0.625 C 2,-2.1875 1.78125,-1.96875 1.484375,-1.84375 Z m 0,0"
   id="id-66402396-06b5-480a-912f-f8b051f62ee2" />
      </g>
      <g
   id="id-5668b0cb-eb00-49eb-b3ee-b24938a19a40">
        <path
   d="m 3.390625,-4.21875 c 0.046875,-0.203125 0.0625,-0.21875 0.21875,-0.234375 0.03125,0 0.265625,0 0.40625,0 0.4375,0 0.609375,0 0.78125,0.046875 0.3125,0.09375 0.328125,0.296875 0.328125,0.546875 0,0.109375 0,0.203125 -0.046875,0.5625 L 5.0625,-3.21875 c 0,0.078125 0.046875,0.109375 0.125,0.109375 0.109375,0 0.109375,-0.0625 0.125,-0.171875 L 5.5,-4.609375 c 0,-0.09375 -0.078125,-0.09375 -0.203125,-0.09375 h -4.28125 c -0.171875,0 -0.1875,0 -0.234375,0.140625 l -0.453125,1.234375 c 0,0.03125 -0.03125,0.09375 -0.03125,0.125 0,0.03125 0.015625,0.09375 0.125,0.09375 0.09375,0 0.09375,-0.03125 0.140625,-0.171875 0.40625,-1.109375 0.640625,-1.171875 1.703125,-1.171875 h 0.28125 c 0.21875,0 0.21875,0 0.21875,0.0625 0,0 0,0.046875 -0.03125,0.140625 L 1.8125,-0.578125 C 1.75,-0.328125 1.734375,-0.25 1,-0.25 c -0.25,0 -0.3125,0 -0.3125,0.15625 C 0.6875,-0.078125 0.703125,0 0.8125,0 1,0 1.21875,-0.015625 1.40625,-0.015625 1.609375,-0.015625 1.8125,-0.03125 2,-0.03125 c 0.203125,0 0.4375,0 0.640625,0.015625 C 2.828125,-0.015625 3.03125,0 3.21875,0 3.28125,0 3.375,0 3.375,-0.15625 3.375,-0.25 3.3125,-0.25 3.09375,-0.25 c -0.125,0 -0.265625,-0.015625 -0.40625,-0.015625 -0.234375,-0.015625 -0.25,-0.046875 -0.25,-0.125 0,-0.0625 0,-0.0625 0.03125,-0.171875 z m 0,0"
   id="id-fc12a774-7de1-42fa-b1d2-9d562be3e33a" />
      </g>
      <g
   id="id-2de9083d-215e-4b84-85cf-475dcfaa216f">
        <path
   d="m 3.8125,-0.984375 c 0.640625,-0.65625 0.890625,-1.59375 0.890625,-1.65625 0,-0.09375 -0.078125,-0.09375 -0.109375,-0.09375 C 4.5,-2.734375 4.5,-2.71875 4.453125,-2.5625 4.328125,-2.109375 4.09375,-1.671875 3.796875,-1.296875 3.796875,-1.40625 3.78125,-1.875 3.765625,-1.9375 3.65625,-2.625 3.140625,-3.078125 2.4375,-3.078125 c -1.015625,0 -2,0.953125 -2,1.9375 0,0.640625 0.46875,1.203125 1.265625,1.203125 0.640625,0 1.21875,-0.28125 1.609375,-0.578125 0.171875,0.5 0.515625,0.578125 0.734375,0.578125 0.40625,0 0.65625,-0.328125 0.65625,-0.484375 C 4.703125,-0.5 4.609375,-0.5 4.578125,-0.5 c -0.09375,0 -0.109375,0.03125 -0.125,0.0625 -0.09375,0.265625 -0.3125,0.3125 -0.390625,0.3125 -0.09375,0 -0.21875,0 -0.25,-0.859375 z M 3.265625,-0.75 C 2.578125,-0.1875 2,-0.125 1.734375,-0.125 c -0.46875,0 -0.71875,-0.3125 -0.71875,-0.78125 0,-0.1875 0.09375,-0.953125 0.453125,-1.4375 C 1.796875,-2.765625 2.1875,-2.875 2.4375,-2.875 c 0.546875,0 0.71875,0.53125 0.765625,0.96875 0.046875,0.296875 0.03125,0.796875 0.0625,1.15625 z m 0,0"
   id="id-4f5a4f85-1e47-40b9-a3bc-03ffb2cb47b2" />
      </g>
      <g
   id="id-cf38e63f-4034-4045-9f13-fdfbcd96118d">
        <path
   d="m 1.234375,-0.40625 c -0.03125,0.140625 -0.046875,0.1875 -0.421875,0.1875 -0.125,0 -0.203125,0 -0.203125,0.140625 C 0.609375,0 0.6875,0 0.765625,0 H 2.9375 c 0.890625,0 1.625,-0.5625 1.625,-1.0625 0,-0.296875 -0.296875,-0.640625 -0.96875,-0.71875 0.5,-0.0625 1.203125,-0.390625 1.203125,-0.890625 0,-0.421875 -0.5,-0.734375 -1.171875,-0.734375 H 1.578125 c -0.09375,0 -0.171875,0 -0.171875,0.140625 0,0.078125 0.0625,0.078125 0.171875,0.078125 0.0625,0 0.21875,0 0.328125,0.03125 0,0.0625 0,0.078125 -0.015625,0.125 z M 2.078125,-1.859375 2.375,-3.015625 C 2.40625,-3.171875 2.40625,-3.1875 2.609375,-3.1875 H 3.53125 c 0.484375,0 0.71875,0.265625 0.71875,0.53125 0,0.390625 -0.53125,0.796875 -1.234375,0.796875 z M 1.84375,-0.21875 c -0.046875,0 -0.109375,0 -0.15625,-0.015625 0,-0.046875 0,-0.046875 0,-0.09375 L 2.03125,-1.6875 H 3.25 c 0.515625,0 0.765625,0.296875 0.765625,0.609375 0,0.484375 -0.59375,0.859375 -1.21875,0.859375 z m 0,0"
   id="id-3ec9ee4e-3805-45ed-89f5-43c078f59073" />
      </g>
    </g>
  </defs>
  
  
  
  
  
  
  
<g
   id="id-8cbc6a4d-3afd-4410-8963-ae04d4b59de6"><g
     id="id-59df0ba0-223e-40c7-9d22-e89c7aefd192"><path
       d="M 7.0625,-2.328125 C 7.078125,-2.375 7.109375,-2.4375 7.109375,-2.46875 c 0,0 0,-0.109375 -0.125,-0.109375 -0.09375,0 -0.109375,0.0625 -0.125,0.125 C 6.203125,-0.984375 5.84375,-0.3125 4.140625,-0.3125 H 2.6875 c -0.140625,0 -0.171875,0 -0.21875,0 -0.109375,-0.015625 -0.140625,-0.03125 -0.140625,-0.109375 0,-0.03125 0,-0.046875 0.046875,-0.21875 L 3.0625,-3.375 h 0.984375 c 0.84375,0 0.84375,0.21875 0.84375,0.46875 0,0.0625 0,0.1875 -0.0625,0.484375 C 4.8125,-2.375 4.796875,-2.34375 4.796875,-2.3125 c 0,0.046875 0.03125,0.109375 0.125,0.109375 C 5,-2.203125 5.03125,-2.25 5.078125,-2.40625 l 0.5625,-2.328125 c 0,-0.0625 -0.046875,-0.109375 -0.125,-0.109375 -0.078125,0 -0.109375,0.0625 -0.125,0.171875 -0.21875,0.765625 -0.390625,1 -1.3125,1 h -0.9375 l 0.59375,-2.40625 C 3.828125,-6.4375 3.84375,-6.46875 4.28125,-6.46875 H 5.6875 c 1.203125,0 1.515625,0.28125 1.515625,1.109375 0,0.234375 0,0.25 -0.046875,0.53125 0,0.046875 -0.015625,0.125 -0.015625,0.171875 0,0.046875 0.03125,0.125 0.125,0.125 0.109375,0 0.125,-0.0625 0.140625,-0.25 L 7.609375,-6.515625 C 7.640625,-6.78125 7.59375,-6.78125 7.34375,-6.78125 H 2.296875 c -0.1875,0 -0.296875,0 -0.296875,0.203125 0,0.109375 0.09375,0.109375 0.28125,0.109375 0.375,0 0.65625,0 0.65625,0.171875 0,0.046875 0,0.0625 -0.0625,0.25 L 1.5625,-0.78125 c -0.09375,0.390625 -0.109375,0.46875 -0.90625,0.46875 -0.171875,0 -0.28125,0 -0.28125,0.1875 C 0.375,0 0.46875,0 0.65625,0 h 5.171875 c 0.234375,0 0.25,-0.015625 0.3125,-0.171875 z m 0,0"
       id="id-26033434-5d53-46f1-8839-31cedd2760ab" /></g><g
     id="id-2f521a69-53be-4a48-9c46-7731bab2d8fe"><path
       d="m 2.859375,-6.8125 c 0,0 0,-0.109375 -0.125,-0.109375 -0.234375,0 -0.953125,0.078125 -1.21875,0.109375 -0.078125,0 -0.1875,0.015625 -0.1875,0.1875 0,0.125 0.09375,0.125 0.234375,0.125 0.484375,0 0.5,0.0625 0.5,0.171875 L 2.03125,-6.125 0.59375,-0.390625 c -0.046875,0.140625 -0.046875,0.15625 -0.046875,0.21875 0,0.234375 0.203125,0.28125 0.296875,0.28125 0.125,0 0.265625,-0.09375 0.328125,-0.203125 0.046875,-0.09375 0.5,-1.9375 0.5625,-2.1875 0.34375,0.03125 1.15625,0.1875 1.15625,0.84375 0,0.078125 0,0.109375 -0.03125,0.21875 -0.015625,0.109375 -0.03125,0.234375 -0.03125,0.34375 0,0.578125 0.390625,0.984375 0.90625,0.984375 0.296875,0 0.578125,-0.15625 0.796875,-0.53125 0.25,-0.4375 0.359375,-0.984375 0.359375,-1 0,-0.109375 -0.09375,-0.109375 -0.125,-0.109375 -0.09375,0 -0.109375,0.046875 -0.140625,0.1875 -0.203125,0.71875 -0.421875,1.234375 -0.859375,1.234375 -0.203125,0 -0.328125,-0.109375 -0.328125,-0.46875 0,-0.171875 0.046875,-0.40625 0.078125,-0.5625 C 3.5625,-1.3125 3.5625,-1.34375 3.5625,-1.453125 3.5625,-2.09375 2.9375,-2.375 2.078125,-2.5 2.390625,-2.671875 2.71875,-2.984375 2.9375,-3.234375 3.421875,-3.765625 3.875,-4.1875 4.359375,-4.1875 c 0.0625,0 0.078125,0 0.09375,0.015625 0.125,0.015625 0.125,0.015625 0.21875,0.078125 0.015625,0 0.015625,0.015625 0.03125,0.03125 -0.46875,0.03125 -0.5625,0.421875 -0.5625,0.546875 0,0.15625 0.109375,0.34375 0.375,0.34375 0.265625,0 0.546875,-0.21875 0.546875,-0.609375 0,-0.296875 -0.234375,-0.625 -0.671875,-0.625 -0.28125,0 -0.734375,0.078125 -1.453125,0.875 -0.34375,0.375 -0.734375,0.78125 -1.109375,0.921875 z m 0,0"
       id="id-180832b8-c568-41e6-b06c-36017d09f6b5" /></g><g
     id="id-36de3f47-310e-45fe-89bc-3d31619c9690"><path
       d="m 4.25,-6.046875 c 0.078125,-0.28125 0.109375,-0.34375 0.234375,-0.375 0.09375,-0.015625 0.421875,-0.015625 0.625,-0.015625 1.015625,0 1.453125,0.03125 1.453125,0.8125 0,0.15625 -0.03125,0.546875 -0.078125,0.796875 0,0.046875 -0.03125,0.15625 -0.03125,0.1875 0,0.0625 0.03125,0.140625 0.125,0.140625 0.109375,0 0.125,-0.078125 0.15625,-0.234375 L 7,-6.46875 C 7.015625,-6.515625 7.015625,-6.609375 7.015625,-6.640625 7.015625,-6.75 6.921875,-6.75 6.75,-6.75 H 1.21875 c -0.234375,0 -0.25,0.015625 -0.328125,0.203125 l -0.59375,1.75 c 0,0.015625 -0.0625,0.15625 -0.0625,0.1875 0,0.046875 0.0625,0.109375 0.125,0.109375 0.09375,0 0.109375,-0.0625 0.171875,-0.21875 C 1.0625,-6.265625 1.328125,-6.4375 2.796875,-6.4375 H 3.1875 c 0.28125,0 0.28125,0.03125 0.28125,0.125 0,0.046875 -0.03125,0.171875 -0.046875,0.203125 L 2.09375,-0.78125 C 2,-0.421875 1.96875,-0.3125 0.90625,-0.3125 c -0.359375,0 -0.421875,0 -0.421875,0.1875 C 0.484375,0 0.59375,0 0.65625,0 c 0.265625,0 0.546875,-0.015625 0.8125,-0.015625 0.28125,0 0.578125,-0.015625 0.859375,-0.015625 0.28125,0 0.546875,0.015625 0.828125,0.015625 C 3.4375,-0.015625 3.734375,0 4.015625,0 c 0.09375,0 0.21875,0 0.21875,-0.203125 0,-0.109375 -0.078125,-0.109375 -0.34375,-0.109375 -0.234375,0 -0.375,0 -0.625,-0.015625 -0.296875,-0.03125 -0.375,-0.0625 -0.375,-0.21875 0,-0.015625 0,-0.0625 0.046875,-0.203125 z m 0,0"
       id="id-5f20681b-9562-4515-baa9-32a6fa757fd6" /></g><g
     id="id-e6b269ab-3b6c-440c-87c8-3bfec24f1a31"><path
       d="m 6.84375,-3.265625 c 0.15625,0 0.34375,0 0.34375,-0.1875 C 7.1875,-3.65625 7,-3.65625 6.859375,-3.65625 h -5.96875 c -0.140625,0 -0.328125,0 -0.328125,0.203125 0,0.1875 0.1875,0.1875 0.328125,0.1875 z m 0.015625,1.9375 c 0.140625,0 0.328125,0 0.328125,-0.203125 0,-0.1875 -0.1875,-0.1875 -0.34375,-0.1875 H 0.890625 c -0.140625,0 -0.328125,0 -0.328125,0.1875 0,0.203125 0.1875,0.203125 0.328125,0.203125 z m 0,0"
       id="id-6a66ecc5-efbc-4075-8949-00b26f29f408" /></g><g
     id="id-103aa061-62a8-49bb-9869-62237d11569a"><path
       d="m 2.890625,-3.515625 c 0.8125,-0.265625 1.390625,-0.953125 1.390625,-1.75 0,-0.8125 -0.875,-1.375 -1.828125,-1.375 -1,0 -1.765625,0.59375 -1.765625,1.359375 0,0.328125 0.21875,0.515625 0.515625,0.515625 0.296875,0 0.5,-0.21875 0.5,-0.515625 0,-0.484375 -0.46875,-0.484375 -0.609375,-0.484375 0.296875,-0.5 0.953125,-0.625 1.3125,-0.625 0.421875,0 0.96875,0.21875 0.96875,1.109375 0,0.125 -0.03125,0.703125 -0.28125,1.140625 C 2.796875,-3.65625 2.453125,-3.625 2.203125,-3.625 2.125,-3.609375 1.890625,-3.59375 1.8125,-3.59375 c -0.078125,0.015625 -0.140625,0.03125 -0.140625,0.125 0,0.109375 0.0625,0.109375 0.234375,0.109375 h 0.4375 c 0.8125,0 1.1875,0.671875 1.1875,1.65625 0,1.359375 -0.6875,1.640625 -1.125,1.640625 -0.4375,0 -1.1875,-0.171875 -1.53125,-0.75 0.34375,0.046875 0.65625,-0.171875 0.65625,-0.546875 0,-0.359375 -0.265625,-0.5625 -0.546875,-0.5625 -0.25,0 -0.5625,0.140625 -0.5625,0.578125 0,0.90625 0.921875,1.5625 2.015625,1.5625 1.21875,0 2.125,-0.90625 2.125,-1.921875 0,-0.8125 -0.640625,-1.59375 -1.671875,-1.8125 z m 0,0"
       id="id-c146835c-69f5-437f-b922-af51cd5ebb8a" /></g><g
     id="id-cef75a1a-0c0e-48ae-9e5b-9858a4d52104"><path
       d="m 1.265625,-0.765625 1.0625,-1.03125 c 1.546875,-1.375 2.140625,-1.90625 2.140625,-2.90625 0,-1.140625 -0.890625,-1.9375 -2.109375,-1.9375 -1.125,0 -1.859375,0.921875 -1.859375,1.8125 0,0.546875 0.5,0.546875 0.53125,0.546875 0.171875,0 0.515625,-0.109375 0.515625,-0.53125 0,-0.25 -0.1875,-0.515625 -0.53125,-0.515625 -0.078125,0 -0.09375,0 -0.125,0.015625 0.21875,-0.65625 0.765625,-1.015625 1.34375,-1.015625 0.90625,0 1.328125,0.8125 1.328125,1.625 C 3.5625,-3.90625 3.078125,-3.125 2.515625,-2.5 l -1.90625,2.125 C 0.5,-0.265625 0.5,-0.234375 0.5,0 H 4.203125 L 4.46875,-1.734375 H 4.234375 C 4.171875,-1.4375 4.109375,-1 4,-0.84375 3.9375,-0.765625 3.28125,-0.765625 3.0625,-0.765625 Z m 0,0"
       id="id-5dc6e3de-4c7f-410b-b011-be7142de58a9" /></g><g
     id="id-4542ddb6-8a09-4cad-9b62-62a18ffb4836"><path
       d="M 1.328125,-0.546875 C 1.265625,-0.3125 1.25,-0.25 0.703125,-0.25 0.59375,-0.25 0.5,-0.25 0.5,-0.109375 0.5,0 0.578125,0 0.703125,0 H 3.40625 c 1.171875,0 2.078125,-0.796875 2.078125,-1.484375 0,-0.5 -0.453125,-0.921875 -1.203125,-1 0.84375,-0.15625 1.546875,-0.6875 1.546875,-1.28125 0,-0.53125 -0.53125,-1 -1.4375,-1 h -2.53125 c -0.140625,0 -0.234375,0 -0.234375,0.15625 0,0.09375 0.09375,0.09375 0.234375,0.09375 0,0 0.140625,0 0.265625,0.015625 0.140625,0.015625 0.15625,0.03125 0.15625,0.109375 0,0 0,0.046875 -0.03125,0.140625 z m 1.109375,-2.03125 0.421875,-1.6875 c 0.0625,-0.21875 0.0625,-0.25 0.359375,-0.25 h 1.0625 c 0.703125,0 0.875,0.46875 0.875,0.734375 0,0.5625 -0.640625,1.203125 -1.578125,1.203125 z M 2.109375,-0.25 C 1.890625,-0.25 1.875,-0.265625 1.875,-0.328125 c 0,0 0,-0.03125 0.03125,-0.140625 L 2.390625,-2.375 H 3.875 c 0.640625,0 0.90625,0.4375 0.90625,0.828125 0,0.703125 -0.71875,1.296875 -1.5625,1.296875 z m 0,0"
       id="id-f64b32da-1fa7-4fd4-aeeb-ca62a486b2f9" /></g></g><g
   id="id-78080375-8b39-4fc6-aebb-ae905ed27b06">
      <g
   id="id-9f1be2fe-69ae-485a-a6e8-015ca4cdea51">
        <path
   d="m 2.859375,-6.8125 c 0,0 0,-0.109375 -0.125,-0.109375 -0.234375,0 -0.953125,0.078125 -1.21875,0.109375 -0.078125,0 -0.1875,0.015625 -0.1875,0.1875 0,0.125 0.09375,0.125 0.234375,0.125 0.484375,0 0.5,0.0625 0.5,0.171875 L 2.03125,-6.125 0.59375,-0.390625 c -0.046875,0.140625 -0.046875,0.15625 -0.046875,0.21875 0,0.234375 0.203125,0.28125 0.296875,0.28125 0.125,0 0.265625,-0.09375 0.328125,-0.203125 0.046875,-0.09375 0.5,-1.9375 0.5625,-2.1875 0.34375,0.03125 1.15625,0.1875 1.15625,0.84375 0,0.078125 0,0.109375 -0.03125,0.21875 -0.015625,0.109375 -0.03125,0.234375 -0.03125,0.34375 0,0.578125 0.390625,0.984375 0.90625,0.984375 0.296875,0 0.578125,-0.15625 0.796875,-0.53125 0.25,-0.4375 0.359375,-0.984375 0.359375,-1 0,-0.109375 -0.09375,-0.109375 -0.125,-0.109375 -0.09375,0 -0.109375,0.046875 -0.140625,0.1875 -0.203125,0.71875 -0.421875,1.234375 -0.859375,1.234375 -0.203125,0 -0.328125,-0.109375 -0.328125,-0.46875 0,-0.171875 0.046875,-0.40625 0.078125,-0.5625 C 3.5625,-1.3125 3.5625,-1.34375 3.5625,-1.453125 3.5625,-2.09375 2.9375,-2.375 2.078125,-2.5 2.390625,-2.671875 2.71875,-2.984375 2.9375,-3.234375 3.421875,-3.765625 3.875,-4.1875 4.359375,-4.1875 c 0.0625,0 0.078125,0 0.09375,0.015625 0.125,0.015625 0.125,0.015625 0.21875,0.078125 0.015625,0 0.015625,0.015625 0.03125,0.03125 -0.46875,0.03125 -0.5625,0.421875 -0.5625,0.546875 0,0.15625 0.109375,0.34375 0.375,0.34375 0.265625,0 0.546875,-0.21875 0.546875,-0.609375 0,-0.296875 -0.234375,-0.625 -0.671875,-0.625 -0.28125,0 -0.734375,0.078125 -1.453125,0.875 -0.34375,0.375 -0.734375,0.78125 -1.109375,0.921875 z m 0,0"
   id="id-48bfc4e5-d7e6-4ff1-b442-cd84dcc0e39b" />
      </g>
      <g
   id="id-737af272-4558-4491-ac90-cd993f06f5d8">
        <path
   d="m 4.25,-6.046875 c 0.078125,-0.28125 0.109375,-0.34375 0.234375,-0.375 0.09375,-0.015625 0.421875,-0.015625 0.625,-0.015625 1.015625,0 1.453125,0.03125 1.453125,0.8125 0,0.15625 -0.03125,0.546875 -0.078125,0.796875 0,0.046875 -0.03125,0.15625 -0.03125,0.1875 0,0.0625 0.03125,0.140625 0.125,0.140625 0.109375,0 0.125,-0.078125 0.15625,-0.234375 L 7,-6.46875 C 7.015625,-6.515625 7.015625,-6.609375 7.015625,-6.640625 7.015625,-6.75 6.921875,-6.75 6.75,-6.75 H 1.21875 c -0.234375,0 -0.25,0.015625 -0.328125,0.203125 l -0.59375,1.75 c 0,0.015625 -0.0625,0.15625 -0.0625,0.1875 0,0.046875 0.0625,0.109375 0.125,0.109375 0.09375,0 0.109375,-0.0625 0.171875,-0.21875 C 1.0625,-6.265625 1.328125,-6.4375 2.796875,-6.4375 H 3.1875 c 0.28125,0 0.28125,0.03125 0.28125,0.125 0,0.046875 -0.03125,0.171875 -0.046875,0.203125 L 2.09375,-0.78125 C 2,-0.421875 1.96875,-0.3125 0.90625,-0.3125 c -0.359375,0 -0.421875,0 -0.421875,0.1875 C 0.484375,0 0.59375,0 0.65625,0 c 0.265625,0 0.546875,-0.015625 0.8125,-0.015625 0.28125,0 0.578125,-0.015625 0.859375,-0.015625 0.28125,0 0.546875,0.015625 0.828125,0.015625 C 3.4375,-0.015625 3.734375,0 4.015625,0 c 0.09375,0 0.21875,0 0.21875,-0.203125 0,-0.109375 -0.078125,-0.109375 -0.34375,-0.109375 -0.234375,0 -0.375,0 -0.625,-0.015625 -0.296875,-0.03125 -0.375,-0.0625 -0.375,-0.21875 0,-0.015625 0,-0.0625 0.046875,-0.203125 z m 0,0"
   id="id-926970b0-6593-4172-b220-d12a59b86c20" />
      </g>
      <g
   id="id-1c0a2802-2a6c-4ef5-a133-24ec4c19bce6">
        <path
   d="M 1.328125,-0.546875 C 1.265625,-0.3125 1.25,-0.25 0.703125,-0.25 0.59375,-0.25 0.5,-0.25 0.5,-0.109375 0.5,0 0.578125,0 0.703125,0 H 3.40625 c 1.171875,0 2.078125,-0.796875 2.078125,-1.484375 0,-0.5 -0.453125,-0.921875 -1.203125,-1 0.84375,-0.15625 1.546875,-0.6875 1.546875,-1.28125 0,-0.53125 -0.53125,-1 -1.4375,-1 h -2.53125 c -0.140625,0 -0.234375,0 -0.234375,0.15625 0,0.09375 0.09375,0.09375 0.234375,0.09375 0,0 0.140625,0 0.265625,0.015625 0.140625,0.015625 0.15625,0.03125 0.15625,0.109375 0,0 0,0.046875 -0.03125,0.140625 z m 1.109375,-2.03125 0.421875,-1.6875 c 0.0625,-0.21875 0.0625,-0.25 0.359375,-0.25 h 1.0625 c 0.703125,0 0.875,0.46875 0.875,0.734375 0,0.5625 -0.640625,1.203125 -1.578125,1.203125 z M 2.109375,-0.25 C 1.890625,-0.25 1.875,-0.265625 1.875,-0.328125 c 0,0 0,-0.03125 0.03125,-0.140625 L 2.390625,-2.375 H 3.875 c 0.640625,0 0.90625,0.4375 0.90625,0.828125 0,0.703125 -0.71875,1.296875 -1.5625,1.296875 z m 0,0"
   id="id-d038e383-f260-4046-9d7c-f2fe8f8394a8" />
      </g>
      <g
   id="id-4c24213e-fd41-4efa-90a5-ecc76d098953">
        <path
   d="m 2.265625,-4.359375 c 0,-0.109375 -0.09375,-0.265625 -0.28125,-0.265625 -0.1875,0 -0.390625,0.1875 -0.390625,0.390625 0,0.109375 0.078125,0.265625 0.28125,0.265625 0.1875,0 0.390625,-0.203125 0.390625,-0.390625 z M 0.84375,-0.8125 c -0.03125,0.09375 -0.0625,0.171875 -0.0625,0.296875 0,0.328125 0.265625,0.578125 0.65625,0.578125 0.6875,0 1,-0.953125 1,-1.0625 0,-0.09375 -0.09375,-0.09375 -0.109375,-0.09375 -0.09375,0 -0.109375,0.046875 -0.140625,0.125 -0.15625,0.5625 -0.453125,0.84375 -0.734375,0.84375 -0.140625,0 -0.171875,-0.09375 -0.171875,-0.25 0,-0.15625 0.046875,-0.28125 0.109375,-0.4375 C 1.46875,-1 1.546875,-1.1875 1.609375,-1.375 1.671875,-1.546875 1.9375,-2.171875 1.953125,-2.265625 1.984375,-2.328125 2,-2.40625 2,-2.484375 2,-2.8125 1.71875,-3.078125 1.34375,-3.078125 0.640625,-3.078125 0.328125,-2.125 0.328125,-2 c 0,0.078125 0.09375,0.078125 0.125,0.078125 0.09375,0 0.09375,-0.03125 0.125,-0.109375 C 0.75,-2.625 1.0625,-2.875 1.3125,-2.875 c 0.109375,0 0.171875,0.046875 0.171875,0.234375 0,0.171875 -0.03125,0.265625 -0.203125,0.703125 z m 0,0"
   id="id-b831cdb5-6ab7-4bf5-abbf-391fc87f887b" />
      </g>
      <g
   id="id-3932a595-087b-47ce-aef7-f6a2081d32c9">
        <path
   d="m 6.84375,-3.265625 c 0.15625,0 0.34375,0 0.34375,-0.1875 C 7.1875,-3.65625 7,-3.65625 6.859375,-3.65625 h -5.96875 c -0.140625,0 -0.328125,0 -0.328125,0.203125 0,0.1875 0.1875,0.1875 0.328125,0.1875 z m 0.015625,1.9375 c 0.140625,0 0.328125,0 0.328125,-0.203125 0,-0.1875 -0.1875,-0.1875 -0.34375,-0.1875 H 0.890625 c -0.140625,0 -0.328125,0 -0.328125,0.1875 0,0.203125 0.1875,0.203125 0.328125,0.203125 z m 0,0"
   id="id-c8923892-bd9e-4f7d-b6fa-ae73ce847e03" />
      </g>
      <g
   id="id-98485093-fd7b-428a-af4a-4a86e14731b5">
        <path
   d="m 6.5625,-2.296875 c 0.171875,0 0.359375,0 0.359375,-0.203125 0,-0.1875 -0.1875,-0.1875 -0.359375,-0.1875 H 1.171875 c -0.171875,0 -0.34375,0 -0.34375,0.1875 0,0.203125 0.171875,0.203125 0.34375,0.203125 z m 0,0"
   id="id-ad959e5d-0dc3-4d6f-81ee-b0e81acf31cd" />
      </g>
      <g
   id="id-1e89323c-0bcf-4fe2-b3e5-99f714013191">
        <path
   d="M 3.265625,-7.09375 C 3.3125,-7.203125 3.3125,-7.234375 3.3125,-7.28125 c 0,-0.109375 -0.078125,-0.203125 -0.1875,-0.203125 -0.09375,0 -0.171875,0.0625 -0.234375,0.234375 l -1.75,4.578125 C 1.125,-2.609375 1.09375,-2.546875 1.09375,-2.5 c 0,0.03125 0,0.0625 0.046875,0.171875 L 2.890625,2.25 C 2.9375,2.359375 2.984375,2.5 3.125,2.5 c 0.109375,0 0.1875,-0.09375 0.1875,-0.203125 0,-0.03125 0,-0.046875 -0.046875,-0.15625 L 1.5,-2.5 Z m 0,0"
   id="id-c01b8ec1-bb08-49db-aec6-f6e06c2aa9ab" />
      </g>
      <g
   id="id-944b7611-9e85-4816-986a-8aef8bb22d0d">
        <path
   d="m 1.90625,-2.5 c 0,-0.28125 -0.234375,-0.515625 -0.515625,-0.515625 -0.296875,0 -0.53125,0.234375 -0.53125,0.515625 0,0.296875 0.234375,0.53125 0.53125,0.53125 0.28125,0 0.515625,-0.234375 0.515625,-0.53125 z m 0,0"
   id="id-eeb0d5bc-c882-4a3d-986d-ccebbfd3b7d6" />
      </g>
      <g
   id="id-3145cdac-6906-46d6-8ff3-2aa022432f6f">
        <path
   d="M 2.71875,-2.328125 C 2.765625,-2.4375 2.765625,-2.46875 2.765625,-2.5 c 0,-0.015625 0,-0.046875 -0.046875,-0.15625 L 0.984375,-7.25 c -0.0625,-0.171875 -0.125,-0.234375 -0.234375,-0.234375 -0.109375,0 -0.203125,0.09375 -0.203125,0.203125 0,0.03125 0,0.046875 0.046875,0.15625 L 2.359375,-2.5 0.59375,2.109375 C 0.546875,2.21875 0.546875,2.25 0.546875,2.296875 0.546875,2.40625 0.640625,2.5 0.75,2.5 0.875,2.5 0.921875,2.390625 0.953125,2.296875 Z m 0,0"
   id="id-c2df50d2-257b-4a9b-b9f5-50beaf4b2c86" />
      </g>
      <g
   id="id-d40a2d63-a2ea-49b4-8aa0-8762157d712e">
        <path
   d="M 6.421875,-6.78125 H 0.390625 V -6.3125 H 1.46875 v 5.84375 H 0.390625 V 0 c 0.375,-0.03125 1.390625,-0.03125 1.828125,-0.03125 0.484375,0 1.5625,0 2.015625,0.03125 V -0.46875 H 2.875 v -2.6875 h 0.5 c 0.96875,0 1.046875,0.421875 1.046875,1.15625 h 0.46875 V -4.796875 H 4.421875 C 4.421875,-4.0625 4.34375,-3.625 3.375,-3.625 h -0.5 v -2.6875 h 1.40625 c 1.59375,0 1.828125,0.765625 1.984375,1.9375 h 0.46875 z m 0,0"
   id="id-9c4f5b6a-0515-41b2-8f87-bcf2ebed173c" />
      </g>
      <g
   id="id-fd8e109f-4864-4b9c-9207-dfabfe6b2c43">
        <path
   d="m 2.03125,-3.359375 v -1.125 L 0.375,-4.40625 v 0.46875 c 0.609375,0 0.6875,0 0.6875,0.390625 V -0.46875 H 0.375 V 0 c 0.34375,-0.015625 0.796875,-0.03125 1.25,-0.03125 0.375,0 1.015625,0 1.375,0.03125 V -0.46875 H 2.140625 v -1.75 c 0,-0.6875 0.234375,-1.90625 1.234375,-1.90625 0,0.015625 -0.1875,0.171875 -0.1875,0.453125 0,0.40625 0.328125,0.609375 0.609375,0.609375 0.296875,0 0.609375,-0.203125 0.609375,-0.609375 0,-0.53125 -0.53125,-0.8125 -1.0625,-0.8125 -0.6875,0 -1.09375,0.5 -1.3125,1.125 z m 0,0"
   id="id-7c1fd050-48e1-47cd-bab2-78031a222dda" />
      </g>
    </g><g
   id="id-5cb571c5-f2b4-4f47-bb34-abf8d2080a88">
      <g
   id="id-9d7c7cb6-14d7-49a1-8fb5-4651015949ee">
        <path
   d="m 2.859375,-6.8125 c 0,0 0,-0.109375 -0.125,-0.109375 -0.234375,0 -0.953125,0.078125 -1.21875,0.109375 -0.078125,0 -0.1875,0.015625 -0.1875,0.1875 0,0.125 0.09375,0.125 0.234375,0.125 0.484375,0 0.5,0.0625 0.5,0.171875 L 2.03125,-6.125 0.59375,-0.390625 c -0.046875,0.140625 -0.046875,0.15625 -0.046875,0.21875 0,0.234375 0.203125,0.28125 0.296875,0.28125 0.125,0 0.265625,-0.09375 0.328125,-0.203125 0.046875,-0.09375 0.5,-1.9375 0.5625,-2.1875 0.34375,0.03125 1.15625,0.1875 1.15625,0.84375 0,0.078125 0,0.109375 -0.03125,0.21875 -0.015625,0.109375 -0.03125,0.234375 -0.03125,0.34375 0,0.578125 0.390625,0.984375 0.90625,0.984375 0.296875,0 0.578125,-0.15625 0.796875,-0.53125 0.25,-0.4375 0.359375,-0.984375 0.359375,-1 0,-0.109375 -0.09375,-0.109375 -0.125,-0.109375 -0.09375,0 -0.109375,0.046875 -0.140625,0.1875 -0.203125,0.71875 -0.421875,1.234375 -0.859375,1.234375 -0.203125,0 -0.328125,-0.109375 -0.328125,-0.46875 0,-0.171875 0.046875,-0.40625 0.078125,-0.5625 C 3.5625,-1.3125 3.5625,-1.34375 3.5625,-1.453125 3.5625,-2.09375 2.9375,-2.375 2.078125,-2.5 2.390625,-2.671875 2.71875,-2.984375 2.9375,-3.234375 3.421875,-3.765625 3.875,-4.1875 4.359375,-4.1875 c 0.0625,0 0.078125,0 0.09375,0.015625 0.125,0.015625 0.125,0.015625 0.21875,0.078125 0.015625,0 0.015625,0.015625 0.03125,0.03125 -0.46875,0.03125 -0.5625,0.421875 -0.5625,0.546875 0,0.15625 0.109375,0.34375 0.375,0.34375 0.265625,0 0.546875,-0.21875 0.546875,-0.609375 0,-0.296875 -0.234375,-0.625 -0.671875,-0.625 -0.28125,0 -0.734375,0.078125 -1.453125,0.875 -0.34375,0.375 -0.734375,0.78125 -1.109375,0.921875 z m 0,0"
   id="id-b49015ac-e76e-4f11-87ac-ac7005245432" />
      </g>
      <g
   id="id-f0e52a1b-4e1f-493e-8164-997d54278f98">
        <path
   d="m 4.25,-6.046875 c 0.078125,-0.28125 0.109375,-0.34375 0.234375,-0.375 0.09375,-0.015625 0.421875,-0.015625 0.625,-0.015625 1.015625,0 1.453125,0.03125 1.453125,0.8125 0,0.15625 -0.03125,0.546875 -0.078125,0.796875 0,0.046875 -0.03125,0.15625 -0.03125,0.1875 0,0.0625 0.03125,0.140625 0.125,0.140625 0.109375,0 0.125,-0.078125 0.15625,-0.234375 L 7,-6.46875 C 7.015625,-6.515625 7.015625,-6.609375 7.015625,-6.640625 7.015625,-6.75 6.921875,-6.75 6.75,-6.75 H 1.21875 c -0.234375,0 -0.25,0.015625 -0.328125,0.203125 l -0.59375,1.75 c 0,0.015625 -0.0625,0.15625 -0.0625,0.1875 0,0.046875 0.0625,0.109375 0.125,0.109375 0.09375,0 0.109375,-0.0625 0.171875,-0.21875 C 1.0625,-6.265625 1.328125,-6.4375 2.796875,-6.4375 H 3.1875 c 0.28125,0 0.28125,0.03125 0.28125,0.125 0,0.046875 -0.03125,0.171875 -0.046875,0.203125 L 2.09375,-0.78125 C 2,-0.421875 1.96875,-0.3125 0.90625,-0.3125 c -0.359375,0 -0.421875,0 -0.421875,0.1875 C 0.484375,0 0.59375,0 0.65625,0 c 0.265625,0 0.546875,-0.015625 0.8125,-0.015625 0.28125,0 0.578125,-0.015625 0.859375,-0.015625 0.28125,0 0.546875,0.015625 0.828125,0.015625 C 3.4375,-0.015625 3.734375,0 4.015625,0 c 0.09375,0 0.21875,0 0.21875,-0.203125 0,-0.109375 -0.078125,-0.109375 -0.34375,-0.109375 -0.234375,0 -0.375,0 -0.625,-0.015625 -0.296875,-0.03125 -0.375,-0.0625 -0.375,-0.21875 0,-0.015625 0,-0.0625 0.046875,-0.203125 z m 0,0"
   id="id-b886040d-587d-4cf5-82f8-d4a5ad6657f3" />
      </g>
      <g
   id="id-32018ef4-1bd9-4700-818e-a6307c34ef35">
        <path
   d="m 0.875,-0.59375 c -0.03125,0.15625 -0.09375,0.390625 -0.09375,0.4375 0,0.171875 0.140625,0.265625 0.296875,0.265625 0.125,0 0.296875,-0.078125 0.375,-0.28125 0,-0.015625 0.125,-0.484375 0.1875,-0.734375 l 0.21875,-0.890625 C 1.90625,-2.03125 1.96875,-2.25 2.03125,-2.46875 c 0.03125,-0.171875 0.109375,-0.46875 0.125,-0.5 0.140625,-0.3125 0.671875,-1.21875 1.625,-1.21875 0.453125,0 0.53125,0.375 0.53125,0.703125 0,0.25 -0.0625,0.53125 -0.140625,0.828125 L 3.890625,-1.5 3.6875,-0.75 c -0.03125,0.203125 -0.125,0.546875 -0.125,0.59375 0,0.171875 0.140625,0.265625 0.28125,0.265625 0.3125,0 0.375,-0.25 0.453125,-0.5625 0.140625,-0.5625 0.515625,-2.015625 0.59375,-2.40625 0.03125,-0.125 0.5625,-1.328125 1.65625,-1.328125 0.421875,0 0.53125,0.34375 0.53125,0.703125 0,0.5625 -0.421875,1.703125 -0.625,2.234375 -0.078125,0.234375 -0.125,0.34375 -0.125,0.546875 0,0.46875 0.34375,0.8125 0.8125,0.8125 0.9375,0 1.3125,-1.453125 1.3125,-1.53125 0,-0.109375 -0.09375,-0.109375 -0.125,-0.109375 -0.09375,0 -0.09375,0.03125 -0.140625,0.1875 -0.15625,0.53125 -0.46875,1.234375 -1.015625,1.234375 -0.171875,0 -0.25,-0.09375 -0.25,-0.328125 0,-0.25 0.09375,-0.484375 0.1875,-0.703125 0.1875,-0.53125 0.609375,-1.625 0.609375,-2.203125 0,-0.640625 -0.40625,-1.0625 -1.15625,-1.0625 -0.734375,0 -1.25,0.4375 -1.625,0.96875 0,-0.125 -0.03125,-0.46875 -0.3125,-0.703125 -0.25,-0.21875 -0.5625,-0.265625 -0.8125,-0.265625 -0.90625,0 -1.390625,0.640625 -1.5625,0.875 -0.046875,-0.578125 -0.46875,-0.875 -0.921875,-0.875 -0.453125,0 -0.640625,0.390625 -0.734375,0.5625 -0.171875,0.359375 -0.296875,0.9375 -0.296875,0.96875 0,0.109375 0.09375,0.109375 0.109375,0.109375 0.109375,0 0.109375,-0.015625 0.171875,-0.234375 0.171875,-0.703125 0.375,-1.1875 0.734375,-1.1875 0.15625,0 0.296875,0.078125 0.296875,0.453125 0,0.21875 -0.03125,0.328125 -0.15625,0.84375 z m 0,0"
   id="id-98b88b6a-e430-4a21-aa67-8c8ed4f76919" />
      </g>
      <g
   id="id-582c5ddb-b835-41f4-98ce-e67213b72d08">
        <path
   d="m 4.671875,-3.703125 c 0,-0.546875 -0.265625,-0.703125 -0.4375,-0.703125 -0.25,0 -0.5,0.265625 -0.5,0.484375 0,0.125 0.046875,0.1875 0.15625,0.296875 0.21875,0.203125 0.34375,0.453125 0.34375,0.8125 0,0.421875 -0.609375,2.703125 -1.765625,2.703125 -0.515625,0 -0.75,-0.34375 -0.75,-0.875 0,-0.546875 0.28125,-1.28125 0.578125,-2.109375 0.078125,-0.171875 0.125,-0.3125 0.125,-0.5 0,-0.4375 -0.3125,-0.8125 -0.8125,-0.8125 -0.9375,0 -1.3125,1.453125 -1.3125,1.53125 0,0.109375 0.09375,0.109375 0.109375,0.109375 0.109375,0 0.109375,-0.03125 0.15625,-0.1875 0.296875,-1 0.71875,-1.234375 1.015625,-1.234375 0.078125,0 0.25,0 0.25,0.3125 0,0.25 -0.109375,0.53125 -0.171875,0.703125 -0.4375,1.15625 -0.5625,1.609375 -0.5625,2.046875 0,1.078125 0.875,1.234375 1.328125,1.234375 1.671875,0 2.25,-3.296875 2.25,-3.8125 z m 0,0"
   id="id-f0df9eb1-fc29-4cea-8bd2-5a8d1baa3096" />
      </g>
      <g
   id="id-3e2dddc0-0270-411c-8124-5e01f099c365">
        <path
   d="M 1.328125,-0.546875 C 1.265625,-0.3125 1.25,-0.25 0.703125,-0.25 0.59375,-0.25 0.5,-0.25 0.5,-0.109375 0.5,0 0.578125,0 0.703125,0 H 3.40625 c 1.171875,0 2.078125,-0.796875 2.078125,-1.484375 0,-0.5 -0.453125,-0.921875 -1.203125,-1 0.84375,-0.15625 1.546875,-0.6875 1.546875,-1.28125 0,-0.53125 -0.53125,-1 -1.4375,-1 h -2.53125 c -0.140625,0 -0.234375,0 -0.234375,0.15625 0,0.09375 0.09375,0.09375 0.234375,0.09375 0,0 0.140625,0 0.265625,0.015625 0.140625,0.015625 0.15625,0.03125 0.15625,0.109375 0,0 0,0.046875 -0.03125,0.140625 z m 1.109375,-2.03125 0.421875,-1.6875 c 0.0625,-0.21875 0.0625,-0.25 0.359375,-0.25 h 1.0625 c 0.703125,0 0.875,0.46875 0.875,0.734375 0,0.5625 -0.640625,1.203125 -1.578125,1.203125 z M 2.109375,-0.25 C 1.890625,-0.25 1.875,-0.265625 1.875,-0.328125 c 0,0 0,-0.03125 0.03125,-0.140625 L 2.390625,-2.375 H 3.875 c 0.640625,0 0.90625,0.4375 0.90625,0.828125 0,0.703125 -0.71875,1.296875 -1.5625,1.296875 z m 0,0"
   id="id-6d2b32a3-0d46-44ad-8261-5ba9a50177f1" />
      </g>
      <g
   id="id-b0535038-1e9a-478c-8d44-fd99fbee98a2">
        <path
   d="m 2.265625,-4.359375 c 0,-0.109375 -0.09375,-0.265625 -0.28125,-0.265625 -0.1875,0 -0.390625,0.1875 -0.390625,0.390625 0,0.109375 0.078125,0.265625 0.28125,0.265625 0.1875,0 0.390625,-0.203125 0.390625,-0.390625 z M 0.84375,-0.8125 c -0.03125,0.09375 -0.0625,0.171875 -0.0625,0.296875 0,0.328125 0.265625,0.578125 0.65625,0.578125 0.6875,0 1,-0.953125 1,-1.0625 0,-0.09375 -0.09375,-0.09375 -0.109375,-0.09375 -0.09375,0 -0.109375,0.046875 -0.140625,0.125 -0.15625,0.5625 -0.453125,0.84375 -0.734375,0.84375 -0.140625,0 -0.171875,-0.09375 -0.171875,-0.25 0,-0.15625 0.046875,-0.28125 0.109375,-0.4375 C 1.46875,-1 1.546875,-1.1875 1.609375,-1.375 1.671875,-1.546875 1.9375,-2.171875 1.953125,-2.265625 1.984375,-2.328125 2,-2.40625 2,-2.484375 2,-2.8125 1.71875,-3.078125 1.34375,-3.078125 0.640625,-3.078125 0.328125,-2.125 0.328125,-2 c 0,0.078125 0.09375,0.078125 0.125,0.078125 0.09375,0 0.09375,-0.03125 0.125,-0.109375 C 0.75,-2.625 1.0625,-2.875 1.3125,-2.875 c 0.109375,0 0.171875,0.046875 0.171875,0.234375 0,0.171875 -0.03125,0.265625 -0.203125,0.703125 z m 0,0"
   id="id-041e4097-6d73-4e3a-a22e-8aa254c691fd" />
      </g>
      <g
   id="id-da18d0d3-7f13-4b2f-a2ca-a1774a4b078d">
        <path
   d="m 6.84375,-3.265625 c 0.15625,0 0.34375,0 0.34375,-0.1875 C 7.1875,-3.65625 7,-3.65625 6.859375,-3.65625 h -5.96875 c -0.140625,0 -0.328125,0 -0.328125,0.203125 0,0.1875 0.1875,0.1875 0.328125,0.1875 z m 0.015625,1.9375 c 0.140625,0 0.328125,0 0.328125,-0.203125 0,-0.1875 -0.1875,-0.1875 -0.34375,-0.1875 H 0.890625 c -0.140625,0 -0.328125,0 -0.328125,0.1875 0,0.203125 0.1875,0.203125 0.328125,0.203125 z m 0,0"
   id="id-c786dc1b-55c0-4897-8586-43859bc5bb08" />
      </g>
      <g
   id="id-3643c809-ea8c-4f89-8701-c145dd2406aa">
        <path
   d="M 3.5,11.34375 C 3.5625,11.5 3.59375,11.5625 3.71875,11.5625 c 0.109375,0 0.203125,-0.09375 0.203125,-0.203125 0,0 0,-0.0625 -0.0625,-0.1875 l -2.46875,-5.59375 2.46875,-5.59375 c 0.0625,-0.125 0.0625,-0.171875 0.0625,-0.1875 0,-0.109375 -0.09375,-0.203125 -0.203125,-0.203125 -0.125,0 -0.15625,0.09375 -0.21875,0.21875 L 1.03125,5.390625 c -0.046875,0.125 -0.046875,0.1875 -0.046875,0.1875 0,0.015625 0,0.0625 0.046875,0.1875 z m 0,0"
   id="id-a8a3b0fb-985c-49a6-9168-312b237c3874" />
      </g>
      <g
   id="id-03e91465-de62-4a64-a8b6-a5c4edbc4205">
        <path
   d="m 3.296875,5.578125 -2.453125,5.59375 c -0.0625,0.125 -0.0625,0.1875 -0.0625,0.1875 0,0.109375 0.09375,0.203125 0.203125,0.203125 0.125,0 0.15625,-0.07813 0.21875,-0.203125 L 3.65625,5.765625 c 0.0625,-0.125 0.0625,-0.171875 0.0625,-0.1875 0,0 0,-0.0625 -0.0625,-0.1875 l -2.453125,-5.5625 C 1.125,-0.34375 1.09375,-0.40625 0.984375,-0.40625 c -0.109375,0 -0.203125,0.09375 -0.203125,0.203125 0,0.015625 0,0.0625 0.0625,0.1875 z m 0,0"
   id="id-9e22a1ac-e270-42d9-904f-16a19429aab8" />
      </g>
      <g
   id="id-eaf0d56a-b330-4bc5-9319-b1fe94344b38">
        <path
   d="M 3.515625,-1.265625 H 3.28125 c -0.015625,0.15625 -0.09375,0.5625 -0.1875,0.625 C 3.046875,-0.59375 2.515625,-0.59375 2.40625,-0.59375 H 1.125 c 0.734375,-0.640625 0.984375,-0.84375 1.390625,-1.171875 0.515625,-0.40625 1,-0.84375 1,-1.5 0,-0.84375 -0.734375,-1.359375 -1.625,-1.359375 -0.859375,0 -1.453125,0.609375 -1.453125,1.25 0,0.34375 0.296875,0.390625 0.375,0.390625 0.15625,0 0.359375,-0.125 0.359375,-0.375 0,-0.125 -0.046875,-0.375 -0.40625,-0.375 C 0.984375,-4.21875 1.453125,-4.375 1.78125,-4.375 c 0.703125,0 1.0625,0.546875 1.0625,1.109375 0,0.609375 -0.4375,1.078125 -0.65625,1.328125 L 0.515625,-0.265625 C 0.4375,-0.203125 0.4375,-0.1875 0.4375,0 h 2.875 z m 0,0"
   id="id-7238d140-c42d-4df8-b879-7bbf5950564a" />
      </g>
    </g><marker
   style="overflow:visible"
   id="ArrowWideHeavy-4"
   refX="0"
   refY="0"
   orient="auto-start-reverse"
   inkscape:stockid="Wide, heavy arrow"
   markerWidth="0.80000001"
   markerHeight="0.80000001"
   viewBox="0 0 1 1"
   inkscape:isstock="true"
   inkscape:collect="always"
   preserveAspectRatio="xMidYMid"><path
     style="fill:context-stroke;fill-rule:evenodd;stroke:none"
     d="m 1,0 -3,3 h -2 l 3,-3 -3,-3 h 2 z"
     id="path3-8" /></marker><marker
   style="overflow:visible"
   id="ArrowWideHeavy-7-1"
   refX="0"
   refY="0"
   orient="auto-start-reverse"
   inkscape:stockid="Wide, heavy arrow"
   markerWidth="0.80000001"
   markerHeight="0.80000001"
   viewBox="0 0 1 1"
   inkscape:isstock="true"
   inkscape:collect="always"
   preserveAspectRatio="xMidYMid"><path
     style="fill:context-stroke;fill-rule:evenodd;stroke:none"
     d="m 1,0 -3,3 h -2 l 3,-3 -3,-3 h 2 z"
     id="path3-5-0" /></marker><marker
   style="overflow:visible"
   id="ArrowWideHeavy-7-1-9"
   refX="0"
   refY="0"
   orient="auto-start-reverse"
   inkscape:stockid="Wide, heavy arrow"
   markerWidth="0.80000001"
   markerHeight="0.80000001"
   viewBox="0 0 1 1"
   inkscape:isstock="true"
   inkscape:collect="always"
   preserveAspectRatio="xMidYMid"><path
     style="fill:context-stroke;fill-rule:evenodd;stroke:none"
     d="m 1,0 -3,3 h -2 l 3,-3 -3,-3 h 2 z"
     id="path3-5-0-6" /></marker></defs><g
     inkscape:groupmode="layer"
     id="layer2"
     inkscape:label="Base Layer"
     transform="translate(-1030.3762,-285.14918)"
     style="display:inline"><path
       style="opacity:0.9;fill:none;fill-rule:evenodd;stroke:#000000;stroke-width:5;stroke-linecap:round;stroke-linejoin:bevel;stroke-dasharray:none;stroke-dashoffset:0;marker-start:url(#ArrowWideHeavy);paint-order:markers fill stroke"
       d="m 394.96465,394.45746 -2e-5,217.15924"
       id="path1" /><path
       style="opacity:0.9;fill:none;fill-rule:evenodd;stroke:#000000;stroke-width:5;stroke-linecap:round;stroke-linejoin:bevel;stroke-dasharray:none;stroke-dashoffset:0;marker-start:url(#ArrowWideHeavy-7);paint-order:markers fill stroke"
       d="m 768.83707,607.06303 -378.20817,-2e-5"
       id="path1-6" /><text
       xml:space="preserve"
       style="font-size:26.6667px;font-family:'DejaVu Sans';-inkscape-font-specification:'DejaVu Sans';text-align:start;writing-mode:lr-tb;direction:ltr;text-anchor:start;opacity:0.9;fill:#000000;fill-rule:evenodd;stroke:none;stroke-width:5;stroke-linecap:round;stroke-linejoin:bevel;stroke-dasharray:none;stroke-dashoffset:0;paint-order:markers fill stroke"
       x="362.3605"
       y="435.23929"
       id="text1"><tspan
         sodipodi:role="line"
         x="362.3605"
         y="435.23929"
         id="tspan2"
         style="text-align:center;text-anchor:middle;fill:#000000;stroke:none">T</tspan></text><text
       xml:space="preserve"
       style="font-size:26.6667px;font-family:'DejaVu Sans';-inkscape-font-specification:'DejaVu Sans';text-align:start;writing-mode:lr-tb;direction:ltr;text-anchor:start;opacity:0.9;fill:#000000;fill-rule:evenodd;stroke:none;stroke-width:5;stroke-linecap:round;stroke-linejoin:bevel;stroke-dasharray:none;stroke-dashoffset:0;paint-order:markers fill stroke"
       x="751.68542"
       y="648.09375"
       id="text1-2"><tspan
         sodipodi:role="line"
         x="751.68542"
         y="648.09375"
         id="tspan2-3"
         style="text-align:center;text-anchor:middle;fill:#000000;stroke:none">far</tspan><tspan
         sodipodi:role="line"
         x="751.68542"
         y="681.42712"
         style="text-align:center;text-anchor:middle;fill:#000000;stroke:none"
         id="tspan3">from equilibrium</tspan></text><text
       xml:space="preserve"
       style="font-size:26.6667px;font-family:'DejaVu Sans';-inkscape-font-specification:'DejaVu Sans';text-align:start;writing-mode:lr-tb;direction:ltr;text-anchor:start;display:inline;opacity:0.9;fill:#000000;fill-rule:evenodd;stroke:none;stroke-width:5;stroke-linecap:round;stroke-linejoin:bevel;stroke-dasharray:none;stroke-dashoffset:0;paint-order:markers fill stroke"
       x="324.96356"
       y="664.76044"
       id="text1-2-8"><tspan
         sodipodi:role="line"
         x="324.96356"
         y="664.76044"
         style="text-align:center;text-anchor:middle;fill:#000000;stroke:none"
         id="tspan3-5">equilibrium</tspan></text><rect
       style="opacity:0.9;fill:none;fill-rule:evenodd;stroke:none;stroke-width:5;stroke-linecap:round;stroke-linejoin:bevel;stroke-dasharray:none;stroke-dashoffset:0;paint-order:markers fill stroke"
       id="rect4"
       width="148.27586"
       height="114.65517"
       x="675.42493"
       y="431.03085" /><path
       style="opacity:0.9;fill:none;fill-rule:evenodd;stroke:#ff6600;stroke-width:5;stroke-linecap:round;stroke-linejoin:round;paint-order:fill markers stroke"
       d="m 395.98945,506.73625 c 0,0 107.85487,0.1891 159.0909,-10.90909 46.52102,-10.07688 128.18182,-48.18182 128.18182,-48.18182"
       id="path4"
       sodipodi:nodetypes="csc" /><path
       style="display:inline;opacity:0.9;fill:none;fill-rule:evenodd;stroke:#ff9955;stroke-width:5;stroke-linecap:round;stroke-linejoin:round;paint-order:fill markers stroke"
       d="m 395.67127,507.14534 c 0,0 89.41916,-1.10119 141.81817,-2.72727 61.06648,-1.89506 160,-26.36364 160,-26.36364"
       id="path4-8"
       sodipodi:nodetypes="csc" /><path
       style="display:inline;opacity:0.9;fill:none;fill-rule:evenodd;stroke:#aa4400;stroke-width:5;stroke-linecap:round;stroke-linejoin:round;paint-order:fill markers stroke"
       d="m 395.67126,506.50898 c 0,0 89.41916,-1.10119 141.81817,-2.72727 61.06648,-1.89506 158.18182,31.81818 158.18182,31.81818"
       id="path4-8-5"
       sodipodi:nodetypes="csc" /><path
       style="display:inline;opacity:0.9;fill:none;fill-rule:evenodd;stroke:#000000;stroke-width:4;stroke-linecap:round;stroke-linejoin:bevel;stroke-dasharray:none;stroke-dashoffset:0;marker-start:url(#ArrowWideHeavy-4);paint-order:markers fill stroke"
       d="M 1226.9114,332.14187 V 734.66199"
       id="path1-4" /><path
       style="display:inline;opacity:0.9;fill:none;fill-rule:evenodd;stroke:#000000;stroke-width:4;stroke-linecap:round;stroke-linejoin:bevel;stroke-dasharray:none;stroke-dashoffset:0;marker-start:url(#ArrowWideHeavy-7-1);paint-order:markers fill stroke"
       d="m 1520.9163,543.15134 -374.8905,-2e-5"
       id="path1-6-4" /><path
       style="display:inline;opacity:0.9;fill:none;fill-rule:evenodd;stroke:#000000;stroke-width:4;stroke-linecap:round;stroke-linejoin:bevel;stroke-dasharray:none;stroke-dashoffset:0;marker-start:url(#ArrowWideHeavy-7-1-9);paint-order:markers fill stroke"
       d="M 1109.2964,657.91435 1306.9245,468.06502"
       id="path1-6-4-7" /><path
       style="opacity:0.7;fill:#ff6600;fill-opacity:1;fill-rule:nonzero;stroke:#ff6600"
       id="path5"
       d="m 1300.5476,441.65705 c -12.0878,-20.74556 -0.6206,-5.57604 -44.7455,-19.22004 -6.3236,-1.95533 -12.1775,-5.25587 -18.5004,-7.21336 -10.0926,-3.12454 -39.5725,-9.21384 -48.591,-9.11261 -8.8524,0.0994 -17.4309,3.1079 -26.1464,4.66185 -8.3891,3.99294 -17.6019,6.58581 -25.1674,11.97881 -14.2794,10.17892 -23.6358,25.56334 -28.7908,41.99666 -2.6471,8.43869 -3.7836,17.3281 -4.5547,26.13856 -0.9155,10.45931 -1.6216,21.05599 -0.4897,31.4941 1.3832,12.755 5.3253,25.10087 7.988,37.6513 12.9312,21.8995 30.9702,64.40731 60.3853,74.2913 24.1968,8.13053 50.7603,5.5507 76.0229,9.21022 12.1128,1.75466 23.8624,5.79397 36.0397,7.02312 29.4395,2.97156 30.9266,0.0693 57.2754,-7.46377 6.9233,-3.07243 14.6244,-4.78962 20.7699,-9.21728 10.6086,-7.64319 16.4603,-19.11781 18.1922,-31.73471 0.6838,-4.98181 0.781,-10.29359 -0.81,-15.06381 -1.5696,-4.70653 -3.7746,-10.366 -8.3281,-12.33609 -16.2264,-7.02048 -34.202,-8.97581 -51.303,-13.46371 -39.4344,-58.23104 -20.6193,-18.18778 -31.2951,-66.60633 -0.056,-0.25174 -1.9537,-10.34055 -5.9779,-6.65645 -1.2626,1.15588 -3.7481,8.31882 -4.0974,9.23279 -0.4092,1.86409 -0.8184,3.72818 -1.2276,5.59227 -0.1256,1.2589 -0.1465,2.5327 -0.3768,3.77671 -0.098,0.53104 -1.0723,1.76848 -0.6011,1.5046 0.9478,-0.53073 1.4049,-2.90114 1.3418,-3.78788 -0.079,-1.11712 -0.4479,-2.19462 -0.6719,-3.29194 -0.6207,-0.24372 -1.1976,-0.7866 -1.8621,-0.73118 -0.9122,0.0761 -1.7148,0.65698 -2.5177,1.09649 -5.4953,3.00798 -8.5419,6.10678 -11.1335,11.88653 -0.6341,1.41414 -0.9693,2.9441 -1.454,4.41615 -0.4431,0.66525 -8.7026,13.0523 -9.0937,13.69954 -1.5636,2.5873 -3.7842,6.6365 -1.1169,9.74303 4.1135,4.79082 9.9544,7.78489 14.677,11.97655 3.531,3.13413 6.7035,6.65036 10.0552,9.97554 1.0817,2.09521 2.1634,4.19041 3.2451,6.28562 -0.3789,1.31155 18.1693,6.67091 18.5482,5.35936 v 0 c 1.6135,0.56682 3.2271,1.13363 4.8406,1.70045 4.2305,1.90135 8.4562,3.81368 12.6917,5.70405 25.1827,11.2394 10.8515,3.86407 21.2786,10.06382 0.2854,0.16972 0.9495,0.12624 0.8875,0.4525 -0.4972,2.61758 -3.0058,4.63393 -2.5822,7.5646 1.9218,0.83434 7.2797,3.48546 9.3559,3.22388 1.3257,-0.16703 2.5377,-0.8532 3.7526,-1.40947 6.5455,-2.99704 5.4456,-2.79502 11.5226,-7.74033 9.4198,-11.12838 3.4686,-4.32271 12.728,-14.43381 2.0795,-2.27077 4.1191,-4.57805 6.2125,-6.83605 1.3408,-1.44629 2.5538,-3.03823 4.0893,-4.27596 2.5098,-2.02313 5.3373,-2.87415 8.2639,-4.00039 3.4786,-2.22454 6.191,-3.54427 8.6404,-7.25303 4.8175,-7.29427 6.3271,-15.80294 6.5446,-24.48441 1.1731,-46.82913 -0.013,-31.92967 -29.614,-79.18106 -19.5016,-5.13823 -39.2694,-9.3552 -58.5047,-15.41467 -7.8492,-2.47266 -14.8997,-7.01113 -22.5232,-10.11066 -14.6463,-5.9549 -32.0866,-12.12207 -47.8372,-14.28071 -7.877,-1.07956 -15.9653,-1.91815 -23.8383,-0.80967 -7.2809,1.02511 -13.9214,4.73739 -20.8821,7.10609 -5.7318,3.07012 -12.2904,4.94186 -17.1954,9.21036 -2.6257,2.28499 -21.1355,26.22743 -11.8055,32.81199 13.4049,9.4603 33.6084,4.92111 47.1192,14.22958 19.5921,13.49837 4.9345,55.57617 27.5791,65.83255 1.038,4.29534 6.7415,32.56757 11.6067,39.42703 5.1177,7.21559 20.7404,12.3396 28.5875,6.56895 2.2952,-1.68789 2.9922,-4.84923 4.4883,-7.27385 1.0768,-3.45314 2.8724,-6.76005 3.2303,-10.35942 0.4895,-4.92172 -0.5722,-9.87662 -0.7261,-14.82022 -0.1165,-3.7399 0.3802,-7.51211 -0.085,-11.22481 -0.4406,-3.51794 0.3256,-8.32623 -2.6125,-10.31044 -32.0443,-21.64002 -29.8136,1.33287 -29.652,-19.25304 5.1983,2.7401 43.9492,-70.77569 38.7508,-73.51579 z" /><path
       style="fill:#000000;fill-opacity:1;fill-rule:nonzero;stroke:none"
       id="path8"
       d="m 1363.5902,406.21813 c -6.1488,2.8579 -12.4713,6.54158 -16.3081,12.34502 -0.6542,0.98958 -1.0491,2.12804 -1.5737,3.19206 -0.1221,1.42127 -0.6076,3.16162 0.276,4.51878 0.2358,0.36222 0.7255,0.47001 1.0883,0.70501 0.013,0.0115 0.1764,-0.17546 0.1632,-0.187 v 0 c -0.3092,-0.18157 -0.803,-0.20849 -0.9276,-0.54472 -0.4503,-1.21512 1.1868,-2.6797 1.6643,-3.29395 5.1021,-5.86906 10.715,-10.19463 17.4292,-14.1021 0.1862,-0.1281 -1.6255,-2.7612 -1.8116,-2.6331 z" /><path
       style="fill:#000000;fill-opacity:1;fill-rule:nonzero;stroke:none"
       id="path9"
       d="m 1354.2408,408.51087 c 4.8214,0.67983 9.6898,-0.74655 14.5005,-0.33351 -0.3419,-0.33708 -0.5929,-0.80365 -1.0259,-1.01122 -0.594,-0.28477 -1.7174,1.01235 -2.2286,1.49638 -2.7842,2.63599 -3.6609,4.02999 -5.3973,7.43653 -0.6456,2.55801 -0.9128,4.26954 -0.4268,6.81288 0,0.0262 0.3682,0.0496 0.3698,0.0234 v 0 c 0.8165,-1.99544 2.1226,-3.61702 3.4991,-5.27665 1.3225,-2.17143 1.5631,-2.73553 3.1752,-4.70828 0.7752,-0.9487 4.2895,-4.15975 4.3987,-5.40587 0.074,-0.84167 -0.5616,-1.59376 -0.8423,-2.39064 -2.0651,-0.72301 -1.0722,-0.52211 -4.1776,-0.50611 -4.2302,0.0218 -8.4378,0.59188 -12.6671,0.66012 -0.2265,0.0581 0.5958,3.26108 0.8223,3.20293 z" /><text
       xml:space="preserve"
       style="font-size:26.6667px;font-family:'DejaVu Sans';-inkscape-font-specification:'DejaVu Sans';text-align:center;writing-mode:lr-tb;direction:ltr;text-anchor:middle;opacity:1;fill:none;fill-rule:evenodd;stroke:#000000;stroke-width:4;stroke-linecap:round;stroke-linejoin:round;stroke-dasharray:none;paint-order:fill markers stroke"
       x="1386.8119"
       y="385.09122"
       id="text9"><tspan
         sodipodi:role="line"
         id="tspan9"
         x="1386.8119"
         y="385.09122" /></text><text
       xml:space="preserve"
       style="font-size:26.6667px;font-family:'DejaVu Sans';-inkscape-font-specification:'DejaVu Sans';text-align:center;writing-mode:lr-tb;direction:ltr;text-anchor:middle;opacity:1;fill:#000000;fill-rule:evenodd;stroke:none;stroke-width:4;stroke-linecap:round;stroke-linejoin:round;stroke-dasharray:none;paint-order:fill markers stroke"
       x="1474.0847"
       y="374.18213"
       id="text10"><tspan
         sodipodi:role="line"
         id="tspan10"
         x="1474.0847"
         y="374.18213">coherent temperature</tspan><tspan
         sodipodi:role="line"
         x="1474.0847"
         y="407.5155"
         id="tspan11">paradise</tspan></text><g
       transform="matrix(4.10743,0,0,4.10743,994.18,506.412)"
       ns2:version="1.11.1"
       ns2:texconverter="pdflatex"
       ns2:pdfconverter="inkscape"
       ns2:text="$\\psi$"
       ns2:preamble="/home/bensabat/.config/inkscape/extensions/textext/default_packages.tex"
       ns2:scale="3.080577005509455"
       ns2:alignment="middle center"
       ns2:inkscapeversion="1.4.2"
       ns2:jacobian_sqrt="4.10743"
       id="g14"><defs
   id="id-e693c231-de4d-44cf-bdc7-aacc6622c669">
    <g
   id="id-00c6df64-8eac-4dc0-906f-24ef3045230e">
      <g
   id="id-a7cecf58-d578-425d-939a-fb0e5ac05715">
        <path
   d="m 4.8125,-6.65625 c 0,-0.046875 0.015625,-0.109375 0.015625,-0.15625 0,-0.09375 -0.0625,-0.109375 -0.109375,-0.109375 -0.109375,0 -0.109375,0.03125 -0.15625,0.203125 L 2.90625,-0.125 c -0.75,-0.09375 -1.125,-0.46875 -1.125,-1.125 0,-0.203125 0,-0.453125 0.53125,-1.84375 0.046875,-0.125 0.109375,-0.296875 0.109375,-0.5 0,-0.4375 -0.3125,-0.8125 -0.8125,-0.8125 -0.953125,0 -1.3125,1.453125 -1.3125,1.53125 0,0.109375 0.09375,0.109375 0.109375,0.109375 0.109375,0 0.109375,-0.03125 0.15625,-0.1875 0.28125,-0.9375 0.671875,-1.234375 1.015625,-1.234375 0.078125,0 0.25,0 0.25,0.3125 0,0.265625 -0.109375,0.515625 -0.234375,0.859375 C 1.109375,-1.75 1.109375,-1.5 1.109375,-1.328125 1.109375,-0.375 1.890625,0.03125 2.84375,0.09375 2.765625,0.453125 2.765625,0.46875 2.625,1 2.609375,1.109375 2.40625,1.90625 2.40625,1.9375 c 0,0.015625 0,0.109375 0.109375,0.109375 0.03125,0 0.078125,0 0.09375,-0.046875 0.03125,-0.015625 0.09375,-0.265625 0.125,-0.40625 l 0.375,-1.484375 c 0.375,0 1.25,0 2.1875,-1.0625 0.40625,-0.46875 0.609375,-0.90625 0.71875,-1.203125 0.09375,-0.25 0.3125,-1.109375 0.3125,-1.546875 0,-0.5625 -0.265625,-0.703125 -0.4375,-0.703125 -0.25,0 -0.5,0.265625 -0.5,0.484375 0,0.125 0.0625,0.1875 0.15625,0.265625 0.109375,0.109375 0.359375,0.359375 0.359375,0.84375 0,0.640625 -0.515625,1.453125 -0.875,1.8125 -0.875,0.890625 -1.515625,0.890625 -1.875,0.890625 z m 0,0"
   id="id-15ae52d5-d47e-45fd-89da-0daa0819b766" />
      </g>
    </g>
  </defs>
  
</g></g></svg>
